<svg width="193" height="55" viewBox="0 0 193 55" fill="none" xmlns="http://www.w3.org/2000/svg">
<path fill-rule="evenodd" clip-rule="evenodd" d="M82.3989 17.5921C81.5003 17.0844 80.3431 17.3915 79.8186 18.2805C79.2941 19.1694 79.6009 20.3036 80.4995 20.8113C81.3982 21.319 82.5554 21.0119 83.0799 20.1229C83.6044 19.234 83.2976 18.0998 82.3989 17.5921ZM124.393 41.2646C123.432 41.2646 122.531 40.8027 121.97 40.0235L117.512 33.8302H115.299V39.4313C115.299 40.4438 114.478 41.2646 113.465 41.2646C112.453 41.2646 111.632 40.4438 111.632 39.4313V19.4049C111.632 18.3923 112.453 17.5715 113.465 17.5715C114.478 17.5715 115.299 18.3923 115.299 19.4049V30.5655H117.545L121.499 25.0265C122.044 24.263 122.925 23.8099 123.863 23.8099C125.046 23.8099 125.732 25.1491 125.041 26.1095L120.65 32.214L125.592 38.8836C126.322 39.8686 125.618 41.2646 124.393 41.2646ZM62.8878 18.6382H67.4054C71.8979 18.6382 75.3003 21.8382 75.3003 26.5925C75.3003 31.3144 71.9309 34.5145 67.4054 34.5145H62.6486V39.3817C62.6486 40.4216 61.8056 41.2646 60.7657 41.2646C59.7258 41.2646 58.8828 40.4216 58.8828 39.3817V22.6432C58.8828 20.4313 60.6759 18.6382 62.8878 18.6382ZM62.6486 30.9912H67.2402C69.7177 30.9912 71.4354 29.0828 71.4354 26.5925C71.4354 24.0699 69.7177 22.1614 67.2402 22.1614H62.6486V30.9912ZM81.4673 41.2646C80.4548 41.2646 79.634 40.4438 79.634 39.4313V25.6433C79.634 24.6308 80.4548 23.8099 81.4673 23.8099C82.4798 23.8099 83.3006 24.6308 83.3006 25.6433V39.4313C83.3006 40.4438 82.4798 41.2646 81.4673 41.2646ZM97.7558 41.7171C102.149 41.7171 105.684 39.002 106.642 34.9292C106.726 34.5221 106.415 34.1407 105.999 34.1407H104.187C103.654 34.1407 103.17 34.4478 102.942 34.9292C101.984 37.0625 100.101 38.2908 97.7558 38.2908C94.5847 38.2908 92.1402 35.7696 92.1402 32.5373C92.1402 29.3049 94.5516 26.816 97.7558 26.816C100.068 26.816 102.05 28.0443 102.975 30.0484C103.258 30.6693 103.878 31.0677 104.561 31.0677H105.766C106.305 31.0677 106.71 30.5773 106.609 30.0484C105.618 26.0403 102.182 23.3897 97.7558 23.3897C92.4375 23.3897 88.4075 27.3332 88.4075 32.5373C88.4075 37.7413 92.4375 41.7171 97.7558 41.7171ZM137.387 41.7171C141.748 41.7171 144.621 39.5191 144.621 36.1252C144.621 31.8357 140.971 31.2469 137.969 30.7627L137.949 30.7595L137.908 30.7527C135.779 30.4002 133.985 30.1032 133.985 28.5615C133.985 27.3009 135.24 26.4281 137.255 26.4281C139.402 26.4281 140.723 27.3332 140.79 28.9817C140.79 29.2588 141.005 29.4884 141.281 29.5065L143.539 29.6547C143.928 29.6803 144.258 29.3716 144.258 28.9817C144.192 25.62 141.483 23.3897 137.354 23.3897C133.192 23.3897 130.45 25.5554 130.45 28.6908C130.45 32.7312 133.952 33.3777 136.925 33.8949C139.105 34.2504 141.021 34.606 141.021 36.2868C141.021 37.7413 139.501 38.5494 137.519 38.5494C135.372 38.5494 133.787 37.5797 133.687 35.7373C133.687 35.4155 133.437 35.1491 133.116 35.1286L130.918 34.9883C130.486 34.9607 130.12 35.304 130.12 35.7373C130.219 39.3575 133.06 41.7171 137.387 41.7171ZM157.857 23.3897C163.34 23.3897 166.974 27.5271 166.974 32.6019C166.974 32.9898 166.941 33.3777 166.875 33.7656H152.406C152.869 36.61 154.95 38.3555 157.857 38.3555C159.664 38.3555 161.168 37.6681 162.17 36.4862C162.524 36.0676 163.01 35.7696 163.559 35.7696H165.332C165.908 35.7696 166.312 36.3637 166.042 36.8722C164.436 39.9007 161.438 41.7171 157.857 41.7171C152.637 41.7171 148.706 37.7737 148.706 32.5373C148.706 27.3332 152.637 23.3897 157.857 23.3897ZM163.274 30.8564C162.613 28.2059 160.598 26.6544 157.857 26.6544C155.115 26.6544 153.1 28.2706 152.505 30.8564H163.274ZM171.625 39.4313C171.625 40.4438 172.446 41.2646 173.459 41.2646C174.471 41.2646 175.292 40.4438 175.292 39.4313V19.4049C175.292 18.3923 174.471 17.5715 173.459 17.5715C172.446 17.5715 171.625 18.3923 171.625 19.4049V39.4313ZM183.321 41.2646C182.308 41.2646 181.488 40.4438 181.488 39.4313V19.4048C181.488 18.3923 182.308 17.5715 183.321 17.5715C184.333 17.5715 185.154 18.3923 185.154 19.4049V39.4313C185.154 40.4438 184.333 41.2646 183.321 41.2646Z" fill="#2F2B5B"/>
<path d="M19.6663 12.6815C21.2421 10.0108 24.7321 9.09571 27.4615 10.6377L42.9936 19.4124C45.723 20.9544 46.6581 24.3695 45.0823 27.0402L36.1149 42.2386C34.5391 44.9093 31.049 45.8244 28.3196 44.2824L12.7876 35.5077C10.0582 33.9657 9.12303 30.5506 10.6988 27.8799L19.6663 12.6815Z" fill="#2F2B5B"/>
</svg>
