<svg width="113" height="25" viewBox="0 0 113 25" fill="none" xmlns="http://www.w3.org/2000/svg">
<path fill-rule="evenodd" clip-rule="evenodd" d="M47.5157 6.21168C46.943 5.88813 46.2056 6.08385 45.8713 6.65037C45.5371 7.2169 45.7326 7.93968 46.3053 8.26323C46.878 8.58678 47.6154 8.39106 47.9497 7.82454C48.284 7.25802 48.0885 6.53523 47.5157 6.21168ZM74.2769 21.2975C73.6651 21.2975 73.0905 21.0031 72.7331 20.5065L69.892 16.5596H68.4816V20.1291C68.4816 20.7744 67.9585 21.2975 67.3132 21.2975C66.6679 21.2975 66.1448 20.7744 66.1448 20.1291V7.36651C66.1448 6.72124 66.6679 6.19814 67.3132 6.19814C67.9585 6.19814 68.4816 6.72124 68.4816 7.36651V14.4791H69.9131L72.4331 10.9491C72.7805 10.4626 73.3414 10.1738 73.9392 10.1738C74.6931 10.1738 75.1305 11.0272 74.6903 11.6393L71.8919 15.5297L75.0412 19.7801C75.5062 20.4078 75.0582 21.2975 74.2769 21.2975ZM35.0807 6.87792H37.9596C40.8227 6.87792 42.991 8.91726 42.991 11.9471C42.991 14.9564 40.8437 16.9957 37.9596 16.9957H34.9282V20.0975C34.9282 20.7602 34.391 21.2975 33.7283 21.2975C33.0656 21.2975 32.5283 20.7602 32.5283 20.0975V9.43025C32.5283 8.02064 33.671 6.87792 35.0807 6.87792ZM34.9282 14.7504H37.8544C39.4333 14.7504 40.5279 13.5341 40.5279 11.9471C40.5279 10.3395 39.4333 9.12325 37.8544 9.12325H34.9282V14.7504ZM46.9212 21.2975C46.2759 21.2975 45.7528 20.7744 45.7528 20.1291V11.3422C45.7528 10.6969 46.2759 10.1738 46.9212 10.1738C47.5664 10.1738 48.0895 10.6969 48.0895 11.3422V20.1291C48.0895 20.7744 47.5664 21.2975 46.9212 21.2975ZM57.3017 21.5859C60.1015 21.5859 62.3541 19.8555 62.9646 17.26C63.018 17.0006 62.8198 16.7575 62.555 16.7575H61.4001C61.0607 16.7575 60.7518 16.9532 60.6068 17.26C59.9963 18.6196 58.7963 19.4023 57.3017 19.4023C55.2807 19.4023 53.7229 17.7956 53.7229 15.7356C53.7229 13.6757 55.2597 12.0896 57.3017 12.0896C58.7753 12.0896 60.0384 12.8723 60.6278 14.1495C60.8084 14.5452 61.2034 14.7991 61.6384 14.7991H62.4066C62.7498 14.7991 63.0081 14.4866 62.9435 14.1495C62.312 11.5952 60.1226 9.90603 57.3017 9.90603C53.9123 9.90603 51.344 12.4191 51.344 15.7356C51.344 19.0521 53.9123 21.5859 57.3017 21.5859ZM82.5582 21.5859C85.3371 21.5859 87.1686 20.1851 87.1686 18.0222C87.1686 15.2885 84.8422 14.9133 82.9289 14.6047L82.9161 14.6027L82.8901 14.5984C81.5331 14.3737 80.3899 14.1844 80.3899 13.2019C80.3899 12.3986 81.1899 11.8424 82.474 11.8424C83.8424 11.8424 84.6845 12.4191 84.7266 13.4697C84.7266 13.6463 84.8636 13.7926 85.0398 13.8042L86.479 13.8986C86.7269 13.9149 86.937 13.7182 86.937 13.4697C86.8949 11.3274 85.1686 9.90603 82.5372 9.90603C79.8847 9.90603 78.1374 11.2862 78.1374 13.2843C78.1374 15.8592 80.3689 16.2712 82.2635 16.6008C83.6529 16.8274 84.8739 17.054 84.8739 18.1252C84.8739 19.0521 83.9055 19.5671 82.6425 19.5671C81.2741 19.5671 80.2636 18.9491 80.2005 17.775C80.2005 17.5699 80.0412 17.4001 79.8365 17.3871L78.4356 17.2977C78.16 17.2801 77.9269 17.4989 77.9269 17.775C77.99 20.0821 79.8005 21.5859 82.5582 21.5859ZM95.6032 9.90603C99.0977 9.90603 101.413 12.5427 101.413 15.7768C101.413 16.024 101.392 16.2712 101.35 16.5184H92.1296C92.4244 18.3312 93.7506 19.4435 95.6032 19.4435C96.7552 19.4435 97.7133 19.0055 98.3518 18.2523C98.5779 17.9855 98.8877 17.7956 99.2374 17.7956H100.367C100.734 17.7956 100.992 18.1742 100.82 18.4983C99.796 20.4283 97.8855 21.5859 95.6032 21.5859C92.277 21.5859 89.7719 19.0727 89.7719 15.7356C89.7719 12.4191 92.277 9.90603 95.6032 9.90603ZM99.0556 14.6645C98.6346 12.9753 97.3504 11.9866 95.6032 11.9866C93.8559 11.9866 92.5717 13.0165 92.1928 14.6645H99.0556ZM104.378 20.1291C104.378 20.7744 104.901 21.2975 105.546 21.2975C106.191 21.2975 106.715 20.7744 106.715 20.1291V7.36651C106.715 6.72124 106.191 6.19814 105.546 6.19814C104.901 6.19814 104.378 6.72124 104.378 7.36651V20.1291ZM111.831 21.2975C111.186 21.2975 110.663 20.7744 110.663 20.1291V7.3665C110.663 6.72123 111.186 6.19814 111.831 6.19814C112.477 6.19814 113 6.72123 113 7.3665V20.1291C113 20.7744 112.477 21.2975 111.831 21.2975Z" fill="white"/>
<path d="M7.53321 3.08182C8.53746 1.37978 10.7616 0.796615 12.501 1.77929L22.3994 7.37135C24.1388 8.35402 24.7348 10.5304 23.7306 12.2325L18.0157 21.9182C17.0115 23.6202 14.7873 24.2034 13.0479 23.2207L3.1495 17.6287C1.41009 16.646 0.814122 14.4696 1.81837 12.7675L7.53321 3.08182Z" fill="white"/>
</svg>
